<?xml version="1.0" standalone="no"?>
<!DOCTYPE svg PUBLIC "-//W3C//DTD SVG 20010904//EN"
 "http://www.w3.org/TR/2001/REC-SVG-20010904/DTD/svg10.dtd">
<svg version="1.0" xmlns="http://www.w3.org/2000/svg"
 width="288.000000pt" height="288.000000pt" viewBox="0 0 288.000000 288.000000"
 preserveAspectRatio="xMidYMid meet">
<metadata>
Created by potrace 1.14, written by Peter Selinger 2001-2017
</metadata>
<g transform="translate(0.000000,288.000000) scale(0.100000,-0.100000)"
fill="#000000" stroke="none">
<path d="M1417 2834 c-1 -1 -38 -4 -82 -8 -44 -3 -91 -8 -105 -11 -14 -3 -47
-10 -75 -15 -307 -61 -642 -282 -825 -545 -19 -27 -38 -51 -42 -53 -5 -2 -8
-10 -8 -17 0 -8 -7 -20 -15 -29 -39 -39 -127 -252 -161 -390 -61 -248 -51
-514 27 -756 128 -395 404 -696 794 -865 22 -9 49 -21 60 -26 25 -11 197 -55
256 -65 56 -10 371 -11 424 -1 22 4 54 10 70 13 17 2 38 7 47 10 9 3 27 7 39
9 28 5 120 36 134 44 6 3 15 6 20 7 22 4 135 61 208 106 268 164 461 394 581
692 28 69 66 220 79 317 13 95 15 290 3 362 -54 333 -178 586 -393 803 -81 82
-220 194 -240 194 -6 0 -16 6 -22 14 -27 32 -289 146 -371 162 -14 3 -43 10
-65 16 -44 11 -61 14 -155 23 -68 6 -180 12 -183 9z m173 -397 c14 -3 43 -8
65 -12 291 -51 569 -263 709 -542 89 -179 125 -416 91 -604 -27 -144 -49 -212
-107 -319 -174 -325 -513 -530 -878 -532 -60 -1 -184 10 -210 17 -3 1 -18 5
-35 9 -337 83 -615 338 -721 662 -13 41 -26 86 -29 101 -2 15 -9 49 -13 75
-10 49 -8 248 2 305 33 198 129 390 267 534 156 163 396 285 600 305 30 3 54
6 56 8 4 4 175 -2 203 -7z"/>
<path d="M1273 2319 c-28 -62 -35 -130 -17 -165 10 -18 11 -37 5 -65 -5 -21
-5 -69 -1 -106 6 -56 15 -79 50 -132 42 -63 43 -65 45 -160 1 -53 6 -104 10
-114 17 -40 102 -60 148 -35 44 23 49 35 52 137 2 98 3 100 49 177 36 61 46
88 47 124 0 25 2 53 4 63 2 10 -1 31 -5 48 -6 20 -4 42 4 67 17 48 12 100 -15
157 -27 57 -36 63 -43 28 -13 -60 -16 -70 -30 -122 -21 -75 -63 -154 -102
-192 -33 -32 -60 -35 -34 -4 19 23 7 27 -33 10 -55 -23 -60 -19 -31 25 30 45
40 47 24 6 -9 -24 -8 -26 9 -16 11 5 28 22 40 37 17 23 20 25 21 9 0 -44 60
44 74 109 l6 30 -18 -25 c-50 -71 -81 -92 -59 -40 19 47 16 55 -11 25 -15 -16
-40 -38 -55 -48 l-27 -18 18 35 c35 64 20 94 -35 74 -24 -8 -30 6 -49 100 -4
18 -9 32 -13 32 -3 0 -16 -23 -28 -51z m37 -128 c0 -11 -3 -11 -15 -1 -13 11
-14 10 -9 -4 3 -9 1 -16 -5 -16 -12 0 -14 15 -11 65 3 65 12 72 26 20 7 -28
13 -56 14 -64z m335 87 c12 -49 9 -108 -5 -108 -5 0 -6 8 -3 18 6 15 5 16 -12
2 -17 -14 -18 -13 -10 20 4 19 9 47 9 63 1 33 14 36 21 5z m-219 -394 c10 -64
11 -104 2 -98 -4 3 -8 17 -8 32 -1 15 -6 43 -13 62 -14 40 -11 85 4 58 5 -9
12 -33 15 -54z m83 -26 c-11 -33 -17 -64 -14 -68 3 -5 1 -11 -4 -14 -15 -10
-1 130 16 157 3 5 9 4 13 -3 4 -6 -1 -39 -11 -72z m-97 -245 c21 -19 23 -32 6
-29 -22 3 -38 17 -38 32 0 18 9 18 32 -3z m128 2 c0 -15 -40 -38 -49 -29 -5 5
31 43 42 43 4 1 7 -6 7 -14z"/>
<path d="M1354 2312 c-6 -4 -8 -15 -5 -25 6 -15 21 -19 88 -23 91 -5 133 6
133 34 0 17 -10 19 -103 20 -56 0 -107 -2 -113 -6z"/>
<path d="M1182 2284 c-18 -7 -33 -13 -35 -13 -6 1 -47 -15 -91 -34 -55 -24
-98 -55 -92 -65 2 -4 7 -34 11 -67 6 -54 14 -99 31 -176 l6 -26 -179 0 c-150
-1 -178 -3 -177 -15 1 -8 20 -47 43 -86 l42 -72 92 1 c211 1 200 3 219 -39 9
-20 51 -95 93 -167 42 -71 87 -148 99 -170 32 -55 55 -96 115 -198 28 -49 51
-93 51 -98 0 -5 4 -9 9 -9 5 0 11 -8 14 -17 3 -10 19 -41 36 -69 l30 -51 -23
-38 -23 -38 -14 32 c-8 17 -17 31 -21 31 -5 0 -8 4 -8 10 0 5 -14 33 -31 62
-17 29 -83 142 -145 250 -62 108 -122 212 -133 230 -11 18 -38 65 -60 103 -58
103 -59 104 -116 106 -109 3 -148 0 -138 -13 6 -7 21 -33 35 -58 29 -52 264
-461 362 -629 36 -62 66 -115 66 -117 0 -3 11 -21 23 -42 13 -20 36 -59 52
-87 80 -146 130 -224 137 -217 9 9 188 313 188 319 0 2 11 21 25 43 14 22 25
43 25 48 0 5 -56 105 -124 224 l-123 215 27 16 27 16 37 -59 c21 -33 40 -60
42 -60 1 0 28 44 58 98 31 53 60 103 65 111 12 18 121 24 121 7 0 -7 -4 -16
-9 -21 -5 -6 -26 -41 -47 -80 -20 -38 -59 -106 -84 -149 l-47 -80 44 -75 c25
-42 48 -79 52 -84 4 -4 45 59 92 139 46 81 96 168 111 193 15 25 39 70 54 99
16 28 32 52 36 52 4 0 8 5 8 10 0 6 52 99 115 209 63 109 115 202 115 207 0 5
-45 7 -100 4 l-100 -5 -69 -120 -68 -120 -52 -1 c-29 0 -54 3 -56 7 -3 3 25
57 60 119 62 109 71 135 40 123 -18 -6 -18 -2 -4 57 6 25 16 87 23 138 l13 93
-81 39 c-100 48 -186 74 -186 57 1 -38 14 -55 53 -67 22 -6 65 -23 95 -36 l54
-24 -6 -47 c-5 -44 -9 -63 -20 -125 -10 -52 -50 -167 -78 -223 -41 -80 -79
-135 -139 -198 l-49 -52 19 55 c11 30 23 71 27 90 7 39 14 180 8 180 -2 0 -9
-20 -15 -45 -11 -45 -23 -57 -32 -32 -10 27 -16 -3 -19 -95 -2 -71 -7 -101
-19 -115 -9 -10 -23 -35 -30 -56 -8 -24 -26 -46 -46 -58 l-33 -21 -33 21 c-20
12 -38 35 -46 58 -8 21 -22 49 -32 62 -15 18 -19 41 -19 95 0 39 0 81 0 94 0
12 -5 22 -10 22 -6 0 -10 -4 -10 -10 0 -26 -19 -5 -33 38 l-17 47 5 -91 c3
-59 13 -116 29 -165 l25 -74 -50 53 c-130 138 -208 318 -235 543 l-6 49 54 24
c30 13 72 29 94 36 30 9 43 20 51 40 14 36 0 43 -45 24z"/>
</g>
</svg>
